<svg width="68" height="68" viewBox="0 0 68 68" fill="none" xmlns="http://www.w3.org/2000/svg">
<rect width="68" height="68" rx="34" fill="#E94034"/>
<g clip-path="url(#clip0_1_100)">
<path d="M21.959 45.1779C21.7383 45.1779 21.5178 45.2619 21.3498 45.4299C21.0139 45.7658 21.0139 46.3124 21.3498 46.6483C21.6858 46.9842 22.2323 46.9842 22.5682 46.6483C22.9041 46.3124 22.9041 45.7658 22.5682 45.4299C22.4003 45.2619 22.1797 45.1779 21.959 45.1779Z" fill="white"/>
<path d="M38.3256 28.6361L35.9781 26.2887L31.3728 30.894L33.7202 33.2415L38.3256 28.6361Z" fill="white"/>
<path d="M32.6836 34.2812L30.3362 31.9339L25.7309 36.5392L28.0783 38.8866L32.6836 34.2812Z" fill="white"/>
<path d="M46.7867 15.4797L37.0171 25.2494L39.8843 28.1166C40.1714 28.4037 40.1714 28.8692 39.8843 29.1562L28.5943 40.4461C28.4507 40.5896 28.2626 40.6614 28.0745 40.6614C27.8863 40.6614 27.6982 40.5896 27.5546 40.4461L24.6874 37.5789L15.4824 46.7841L21.2168 52.5185L52.5211 21.2142L46.7867 15.4797ZM23.6106 47.6879C23.156 48.1424 22.5589 48.3697 21.9618 48.3697C21.3647 48.3697 20.7676 48.1425 20.313 47.6879C19.4038 46.7787 19.4038 45.2994 20.313 44.3902C21.2222 43.481 22.7014 43.4811 23.6106 44.3902C24.5198 45.2994 24.5198 46.7787 23.6106 47.6879ZM46.4408 23.8907C45.8437 23.8907 45.2466 23.6634 44.792 23.2088C43.8828 22.2997 43.8828 20.8203 44.792 19.9112C45.7011 19.0021 47.1805 19.0021 48.0896 19.9112C48.9988 20.8203 48.9988 22.2997 48.0896 23.2088C47.635 23.6634 47.038 23.8907 46.4408 23.8907Z" fill="white"/>
<path d="M46.4389 20.6986C46.2183 20.6986 45.9976 20.7825 45.8298 20.9505C45.4938 21.2864 45.4938 21.8329 45.8298 22.1689C46.1656 22.5048 46.7123 22.5048 47.0481 22.1689C47.3841 21.8329 47.3841 21.2864 47.0481 20.9505C46.8803 20.7825 46.6596 20.6986 46.4389 20.6986Z" fill="white"/>
</g>
<defs>
<clipPath id="clip0_1_100">
<rect width="37.7778" height="37.7778" fill="white" transform="translate(15.1111 15.1111)"/>
</clipPath>
</defs>
</svg>
